{
  "asset": { "version": "2.0", "generator": "B2U minimal integration fixture" },
  "scene": 0,
  "scenes": [{ "nodes": [0] }],
  "nodes": [{ "name": "B2U Triangle", "mesh": 0 }],
  "meshes": [{
    "name": "Triangle",
    "primitives": [{ "attributes": { "POSITION": 0 }, "indices": 1, "material": 0 }]
  }],
  "materials": [{
    "name": "DemoMaterial",
    "pbrMetallicRoughness": {
      "baseColorFactor": [0.16, 0.55, 0.95, 1.0],
      "metallicFactor": 0.0,
      "roughnessFactor": 0.55
    }
  }],
  "buffers": [{
    "byteLength": 42,
    "uri": "data:application/octet-stream;base64,"
  }],
  "bufferViews": [
    { "buffer": 0, "byteOffset": 0, "byteLength": 36, "target": 34962 },
    { "buffer": 0, "byteOffset": 36, "byteLength": 6, "target": 34963 }
  ],
  "accessors": [
    {
      "bufferView": 0,
      "componentType": 5126,
      "count": 3,
      "type": "VEC3",
      "min": [0, 0, 0],
      "max": [1, 1, 0]
    },
    { "bufferView": 1, "componentType": 5123, "count": 3, "type": "SCALAR" }
  ]
}
